<?xml version="1.0" encoding="UTF-8" standalone="no"?><svg xmlns="http://www.w3.org/2000/svg" xmlns:xlink="http://www.w3.org/1999/xlink" contentStyleType="text/css" height="526px" preserveAspectRatio="none" style="width:509px;height:526px;background:#FFFFFF;" version="1.1" viewBox="0 0 509 526" width="509px" zoomAndPan="magnify"><defs/><g><!--MD5=[bc938698130bec3721522f38f16e3aed]
cluster Restaurant--><g id="cluster_Restaurant"><rect height="513" rx="2.5" ry="2.5" style="stroke:#181818;stroke-width:1.0;fill:none;" width="192" x="311" y="7"/><text fill="#000000" font-family="sans-serif" font-size="14" font-weight="bold" lengthAdjust="spacing" textLength="92" x="361" y="21.9951">Restaurant</text></g><g id="elem_UC1"><ellipse cx="406.7839" cy="60.8568" fill="#F1F1F1" rx="79.7839" ry="18.3568" style="stroke:#181818;stroke-width:0.5;"/><text fill="#000000" font-family="sans-serif" font-size="14" lengthAdjust="spacing" textLength="118" x="346.0356" y="64.2613">Authentification</text></g><g id="elem_PC"><ellipse cx="407.2353" cy="146.8471" fill="#F1F1F1" rx="64.7353" ry="15.3471" style="stroke:#181818;stroke-width:0.5;"/><text fill="#000000" font-family="sans-serif" font-size="14" lengthAdjust="spacing" textLength="78" x="365.2353" y="150.5946">passe-cmd</text></g><g id="elem_CP"><ellipse cx="407.0591" cy="486.1118" fill="#F1F1F1" rx="78.5591" ry="18.1118" style="stroke:#181818;stroke-width:0.5;"/><text fill="#000000" font-family="sans-serif" font-size="14" lengthAdjust="spacing" textLength="115" x="347.3328" y="489.6525">consulter-(prdt)</text></g><g id="elem_GO"><ellipse cx="406.8049" cy="282.061" fill="#F1F1F1" rx="70.8049" ry="16.561" style="stroke:#181818;stroke-width:0.5;"/><text fill="#000000" font-family="sans-serif" font-size="14" lengthAdjust="spacing" textLength="95" x="356.3049" y="285.8085">gerer-ouvrier</text></g><g id="elem_GC"><ellipse cx="407.0594" cy="349.2119" fill="#F1F1F1" rx="64.0594" ry="15.2119" style="stroke:#181818;stroke-width:0.5;"/><text fill="#000000" font-family="sans-serif" font-size="14" lengthAdjust="spacing" textLength="76" x="366.0594" y="352.9594">gerer-cmd</text></g><g id="elem_GSO"><ellipse cx="406.8288" cy="415.7658" fill="#F1F1F1" rx="69.3288" ry="16.2658" style="stroke:#181818;stroke-width:0.5;"/><text fill="#000000" font-family="sans-serif" font-size="14" lengthAdjust="spacing" textLength="91" x="358.3288" y="419.5133">gerer-salaire</text></g><g id="elem_GS"><ellipse cx="407.1678" cy="213.8336" fill="#F1F1F1" rx="67.1678" ry="15.8336" style="stroke:#181818;stroke-width:0.5;"/><text fill="#000000" font-family="sans-serif" font-size="14" lengthAdjust="spacing" textLength="85" x="361.6678" y="217.5811">gerer-stock</text></g><!--MD5=[0bbf5511d91d17fcdd97aa38a0263a02]
entity AD--><g id="elem_AD"><ellipse cx="195" cy="312.5" fill="#F1F1F1" rx="8" ry="8" style="stroke:#181818;stroke-width:0.5;"/><path d="M195,320.5 L195,347.5 M182,328.5 L208,328.5 M195,347.5 L182,362.5 M195,347.5 L208,362.5 " fill="none" style="stroke:#181818;stroke-width:0.5;"/><text fill="#000000" font-family="sans-serif" font-size="14" lengthAdjust="spacing" textLength="46" x="172" y="376.9951">Admin</text></g><!--MD5=[ff2d61647fb09ddd586bbb3af474de91]
entity CL--><g id="elem_CL"><ellipse cx="27.5" cy="312.5" fill="#F1F1F1" rx="8" ry="8" style="stroke:#181818;stroke-width:0.5;"/><path d="M27.5,320.5 L27.5,347.5 M14.5,328.5 L40.5,328.5 M27.5,347.5 L14.5,362.5 M27.5,347.5 L40.5,362.5 " fill="none" style="stroke:#181818;stroke-width:0.5;"/><text fill="#000000" font-family="sans-serif" font-size="14" lengthAdjust="spacing" textLength="43" x="6" y="376.9951">Client</text></g><!--MD5=[fd18137690d4f3f06d424af9bb021fb9]
link GS to UC1--><g id="link_GS_UC1"><path d="M351.197,204.966 C319.481,196.366 283.478,179.691 270,147.5 C254.362,110.15 299.629,87.453 342.252,74.741 " fill="none" id="GS-to-UC1" style="stroke:#181818;stroke-width:1.0;stroke-dasharray:7.0,7.0;"/><polygon fill="#181818" points="347.164,73.316,337.4057,71.9837,342.3622,74.71,339.636,79.6665,347.164,73.316" style="stroke:#181818;stroke-width:1.0;"/><text fill="#000000" font-family="sans-serif" font-size="13" lengthAdjust="spacing" textLength="45" x="249" y="143.5669">include</text></g><!--MD5=[5a2bc6be631731a1744c4a80396c5273]
link PC to UC1--><g id="link_PC_UC1"><path d="M407,131.226 C407,118.27 407,99.712 407,84.926 " fill="none" id="PC-to-UC1" style="stroke:#181818;stroke-width:1.0;stroke-dasharray:7.0,7.0;"/><polygon fill="#181818" points="407,79.667,403,88.667,407,84.667,411,88.667,407,79.667" style="stroke:#181818;stroke-width:1.0;"/><text fill="#000000" font-family="sans-serif" font-size="13" lengthAdjust="spacing" textLength="45" x="373" y="110.0669">include</text></g><!--MD5=[04c7459c22130fafa20316e9e113a117]
reverse link CL to AD--><g id="link_CL_AD"><path d="M69.3034,342 C101.6548,342 145.635,342 171.792,342 " fill="none" id="CL-backto-AD" style="stroke:#181818;stroke-width:1.0;"/><polygon fill="none" points="69.1261,349,49.1261,342,69.126,335,69.1261,349" style="stroke:#181818;stroke-width:1.0;"/></g><!--MD5=[6e7383e555ed6059fb0b6f8e977aab7a]
link CL to CP--><g id="link_CL_CP"><path d="M49.0564,350.402 C94.5853,368.942 207.462,414.525 303,450 C320.693,456.5697 340.215,463.4786 357.463,469.4675 " fill="none" id="CL-to-CP" style="stroke:#181818;stroke-width:1.0;"/><polygon fill="#181818" points="362.264,471.1312,355.0699,464.4048,357.5396,469.494,352.4504,471.9638,362.264,471.1312" style="stroke:#181818;stroke-width:1.0;"/></g><!--MD5=[7ac0681aff79e5edaec30dc678695b28]
link CL to PC--><g id="link_CL_PC"><path d="M49.3296,327.494 C94.0459,296.861 203.28,224.724 303,180 C320.54,172.133 340.523,165.281 358.191,159.89 " fill="none" id="CL-to-PC" style="stroke:#181818;stroke-width:1.0;"/><polygon fill="#181818" points="363.109,158.408,353.3376,157.1754,358.3217,159.8509,355.6462,164.835,363.109,158.408" style="stroke:#181818;stroke-width:1.0;"/></g><!--MD5=[ac9df7051b19e0f76cbbce79f68f028f]
link AD to GS--><g id="link_AD_GS"><path d="M218.07,315.201 C226.891,305.212 237.451,294.099 248,285 C270.309,265.758 276.543,260.961 303,248 C319.849,239.746 339.184,232.767 356.519,227.321 " fill="none" id="AD-to-GS" style="stroke:#181818;stroke-width:1.0;"/><polygon fill="#181818" points="361.351,225.825,351.5706,224.6657,356.5747,227.3038,353.9366,232.3078,361.351,225.825" style="stroke:#181818;stroke-width:1.0;"/></g><!--MD5=[16a6063fc4ff9309d50430d89e50e2ae]
link AD to GO--><g id="link_AD_GO"><path d="M218.106,330.559 C227.192,326.185 237.929,321.43 248,318 C279.217,307.369 314.973,298.926 344.566,292.896 " fill="none" id="AD-to-GO" style="stroke:#181818;stroke-width:1.0;"/><polygon fill="#181818" points="349.638,291.874,340.0254,289.7296,344.7364,292.8612,341.6049,297.5722,349.638,291.874" style="stroke:#181818;stroke-width:1.0;"/></g><!--MD5=[acafae3459892e097133744da28ffa80]
link AD to GC--><g id="link_AD_GC"><path d="M218.077,342.736 C246.411,343.68 296.862,345.362 338.361,346.745 " fill="none" id="AD-to-GC" style="stroke:#181818;stroke-width:1.0;"/><polygon fill="#181818" points="343.375,346.913,334.5125,342.6169,338.3777,346.7473,334.2474,350.6125,343.375,346.913" style="stroke:#181818;stroke-width:1.0;"/></g><!--MD5=[73abb3840908ca26b5ffa47d1710dc05]
link AD to GSO--><g id="link_AD_GSO"><path d="M218.041,350.526 C239.611,358.801 273.441,371.601 303,382 C321.51,388.512 342.017,395.356 359.828,401.183 " fill="none" id="AD-to-GSO" style="stroke:#181818;stroke-width:1.0;"/><polygon fill="#181818" points="364.777,402.798,357.4625,396.2027,360.0238,401.2465,354.98,403.8078,364.777,402.798" style="stroke:#181818;stroke-width:1.0;"/></g><!--MD5=[16227826631378557ce501f78ec80b2c]
@startuml
left to right direction
actor "Admin" as AD
actor "Client" as CL 
rectangle Restaurant {
  usecase "Authentification" as UC1
  usecase "passe-cmd" as PC
  usecase "consulter-(prdt)" as CP
  usecase "gerer-ouvrier" as GO
  usecase "gerer-cmd" as GC
  usecase "gerer-salaire" as GSO
  
 usecase "gerer-stock" as GS
}

(GS) .> UC1 : include
(PC) .> UC1 :include
 CL <|- - AD

CL - - - -> CP
CL - -> PC
AD - -> GS
AD - -> GO
AD - -> GC
AD - -> GSO
@enduml

PlantUML version 1.2022.4beta2(Unknown compile time)
(GPL source distribution)
Java Runtime: Java(TM) SE Runtime Environment
JVM: Java HotSpot(TM) 64-Bit Server VM
Default Encoding: UTF-8
Language: en
Country: US
--></g></svg>