<svg width="35" height="30" viewBox="0 0 35 30" fill="none" xmlns="http://www.w3.org/2000/svg">
<path d="M17.0625 0C16.4229 -9.5301e-09 15.7897 0.125969 15.1988 0.370716C14.6079 0.615463 14.071 0.974193 13.6188 1.42643C13.1666 1.87866 12.8078 2.41554 12.5631 3.00641C12.3183 3.59728 12.1924 4.23057 12.1924 4.87012C12.1924 5.50968 12.3183 6.14297 12.5631 6.73384C12.8078 7.32471 13.1666 7.86159 13.6188 8.31382C14.071 8.76606 14.6079 9.12479 15.1988 9.36953C15.7897 9.61428 16.4229 9.74025 17.0625 9.74025C18.3541 9.74025 19.5929 9.22715 20.5062 8.31382C21.4195 7.4005 21.9326 6.16176 21.9326 4.87012C21.9326 3.57849 21.4195 2.33975 20.5062 1.42643C19.5929 0.513101 18.3541 0 17.0625 0V0ZM28.0312 2.43262C27.0616 2.43262 26.1316 2.81784 25.4459 3.50352C24.7602 4.1892 24.375 5.11918 24.375 6.08887C24.375 7.05857 24.7602 7.98855 25.4459 8.67423C26.1316 9.35991 27.0616 9.74512 28.0312 9.74512C29.0009 9.74512 29.9309 9.35991 30.6166 8.67423C31.3023 7.98855 31.6875 7.05857 31.6875 6.08887C31.6875 5.11918 31.3023 4.1892 30.6166 3.50352C29.9309 2.81784 29.0009 2.43262 28.0312 2.43262V2.43262ZM6.09375 2.43262C5.12405 2.43262 4.19407 2.81784 3.50839 3.50352C2.82271 4.1892 2.4375 5.11918 2.4375 6.08887C2.4375 7.05857 2.82271 7.98855 3.50839 8.67423C4.19407 9.35991 5.12405 9.74512 6.09375 9.74512C7.06345 9.74512 7.99343 9.35991 8.67911 8.67423C9.36479 7.98855 9.75 7.05857 9.75 6.08887C9.75 5.11918 9.36479 4.1892 8.67911 3.50352C7.99343 2.81784 7.06345 2.43262 6.09375 2.43262ZM9.75 14.6031C9.7545 13.9596 10.0133 13.3439 10.4699 12.8905C10.9266 12.4371 11.544 12.1826 12.1875 12.1826H21.9375C22.584 12.1826 23.204 12.4394 23.6611 12.8966C24.1182 13.3537 24.375 13.9737 24.375 14.6201V21.9326C24.3748 22.6998 24.2548 23.4621 24.0191 24.1922C23.4794 25.8465 22.3676 27.2543 20.8833 28.1626C19.3991 29.071 17.6396 29.4205 15.9208 29.1483C14.2021 28.8761 12.6367 28.0001 11.5057 26.6776C10.3747 25.3552 9.7522 23.6728 9.75 21.9326V14.6031ZM7.3125 14.6201C7.3125 13.7304 7.54894 12.8993 7.96575 12.1826H2.4375C1.79104 12.1826 1.17105 12.4394 0.713927 12.8966C0.256808 13.3537 3.37382e-07 13.9737 3.37382e-07 14.6201V20.7139C-0.000331617 21.7116 0.244301 22.6941 0.712415 23.5751C1.18053 24.4561 1.85781 25.2088 2.68477 25.7669C3.51173 26.325 4.46307 26.6716 5.45526 26.7761C6.44745 26.8806 7.45013 26.74 8.37525 26.3664C7.67369 24.9931 7.30938 23.4724 7.3125 21.9302V14.6201ZM26.8125 14.6201V21.9326C26.8125 23.5292 26.4298 25.0356 25.7498 26.3664C26.6749 26.74 27.6775 26.8806 28.6697 26.7761C29.6619 26.6716 30.6133 26.325 31.4402 25.7669C32.2672 25.2088 32.9445 24.4561 33.4126 23.5751C33.8807 22.6941 34.1253 21.7116 34.125 20.7139V14.6201C34.125 13.9737 33.8682 13.3537 33.4111 12.8966C32.954 12.4394 32.334 12.1826 31.6875 12.1826H26.1593C26.5736 12.8993 26.8125 13.7304 26.8125 14.6201Z" fill="#FFBD35"/>
</svg>
