<svg width="73" height="15" viewBox="0 0 73 15" fill="none" xmlns="http://www.w3.org/2000/svg">
<path d="M47.834 2.75622H48.6902C48.9256 2.75622 49.1022 2.70018 49.22 2.58777C49.3375 2.47567 49.3966 2.3131 49.3966 2.10052C49.3966 1.89971 49.3359 1.74147 49.2155 1.62628C49.0947 1.51109 48.9197 1.45349 48.6902 1.45349H47.834V2.75622ZM49.2553 6.24792L48.0194 3.94376H47.834V6.24792H46.104V0.000113859H48.8315C49.3316 0.000113859 49.7553 0.0874372 50.1026 0.26162C50.4499 0.435957 50.7116 0.675168 50.8883 0.979252C51.0647 1.28365 51.1531 1.62489 51.1531 2.00298C51.1531 2.4283 51.037 2.80205 50.8044 3.12394C50.5718 3.44599 50.2321 3.67498 49.7847 3.81092L51.1884 6.24792H49.2553Z" fill="#FFBD35"/>
<path d="M55.443 3.89944L54.7721 1.87876L54.1101 3.89944H55.443ZM55.8756 5.22881H53.6689L53.3333 6.24789H51.5149L53.7836 5.32763e-05H55.7786L58.0382 6.24789H56.211L55.8756 5.22881Z" fill="#FFBD35"/>
<path d="M61.9928 4.29813C61.9928 4.10908 61.9354 3.96447 61.8207 3.86384C61.7059 3.76351 61.5426 3.71334 61.3307 3.71334H60.3332V4.84762H61.3396C61.775 4.84762 61.9928 4.66461 61.9928 4.29813ZM60.3332 2.48152H61.2072C61.6425 2.48152 61.8604 2.3013 61.8604 1.94086C61.8604 1.56865 61.6425 1.38254 61.2072 1.38254H60.3332V2.48152ZM63.4449 3.58483C63.6597 3.86538 63.7671 4.18603 63.7671 4.54648C63.7671 5.07801 63.5846 5.49465 63.2197 5.79595C62.8549 6.09725 62.343 6.24789 61.6839 6.24789H58.6031V7.37208e-05H61.5867C62.2222 7.37208e-05 62.7211 0.141742 63.0829 0.425389C63.4449 0.709036 63.6258 1.10788 63.6258 1.62191C63.6258 1.98823 63.5302 2.29402 63.339 2.53912C63.1476 2.78437 62.8933 2.95112 62.5754 3.03968C62.9403 3.12251 63.2299 3.30428 63.4449 3.58483Z" fill="#FFBD35"/>
<path d="M70.0959 0.000143776V6.24796H68.3658V3.73988H66.2563V6.24796H64.5261V0.000143776H66.2563V2.34859H68.3658V0.000143776H70.0959Z" fill="#FFBD35"/>
<path d="M72.8147 6.24783H71.0845V1.25011e-06H72.8147V6.24783Z" fill="#FFBD35"/>
<path d="M0.384004 9.20822C0.640007 8.72686 1.00335 8.3517 1.47402 8.08261C1.94485 7.81398 2.48616 7.67944 3.09841 7.67944C3.87505 7.67944 4.52832 7.88784 5.05791 8.30417C5.58765 8.72082 5.92878 9.28656 6.08192 10.0014H4.21927C4.10761 9.76514 3.95308 9.58492 3.75599 9.46075C3.55875 9.33673 3.33066 9.27464 3.07188 9.27464C2.67168 9.27464 2.35245 9.41786 2.11418 9.70445C1.87576 9.99119 1.75655 10.3735 1.75655 10.852C1.75655 11.3367 1.87576 11.722 2.11418 12.0086C2.35245 12.2952 2.67168 12.4384 3.07188 12.4384C3.33066 12.4384 3.55875 12.3765 3.75599 12.2523C3.95308 12.1281 4.10761 11.9481 4.21927 11.7118H6.08192C5.92878 12.4267 5.58765 12.9922 5.05791 13.4089C4.52832 13.8254 3.87505 14.0336 3.09841 14.0336C2.48616 14.0336 1.94485 13.8994 1.47402 13.6305C1.00335 13.3617 0.640007 12.9865 0.384004 12.5048C0.128001 12.0235 0 11.4724 0 10.852C0 10.2377 0.128001 9.68974 0.384004 9.20822" fill="#FFBD35"/>
<path d="M10.9322 12.0042C11.1882 11.7149 11.3162 11.3278 11.3162 10.8433C11.3162 10.3469 11.1882 9.95569 10.9322 9.66911C10.6764 9.38252 10.3277 9.23931 9.88631 9.23931C9.43892 9.23931 9.08885 9.38252 8.83578 9.66911C8.58286 9.95569 8.45625 10.3469 8.45625 10.8433C8.45625 11.3338 8.58286 11.7221 8.83578 12.0086C9.08885 12.2953 9.43892 12.4385 9.88631 12.4385C10.3277 12.4385 10.6764 12.2938 10.9322 12.0042V12.0042ZM8.27982 13.6394C7.79126 13.3645 7.40433 12.9835 7.11887 12.4961C6.83342 12.0086 6.69092 11.4578 6.69092 10.8433C6.69092 10.2288 6.83342 9.67793 7.11887 9.19053C7.40433 8.70314 7.79126 8.32365 8.27982 8.05177C8.76808 7.78005 9.30352 7.64411 9.88631 7.64411C10.4746 7.64411 11.0118 7.78005 11.4973 8.05177C11.9827 8.32365 12.3667 8.70314 12.6491 9.19053C12.9316 9.67793 13.0729 10.2288 13.0729 10.8433C13.0729 11.4578 12.9316 12.0086 12.6491 12.4961C12.3667 12.9835 11.9814 13.3645 11.4928 13.6394C11.0042 13.914 10.4689 14.0514 9.88631 14.0514C9.30352 14.0514 8.76808 13.914 8.27982 13.6394" fill="#FFBD35"/>
<path d="M19.6138 13.9893H17.8836L15.5798 10.4976V13.9893H13.8497V7.74152H15.5798L17.8836 11.2775V7.74152H19.6138V13.9893Z" fill="#FFBD35"/>
<path d="M21.1674 13.5329C20.7024 13.1874 20.4524 12.6925 20.4171 12.0485H22.262C22.2798 12.2671 22.3444 12.4266 22.4562 12.5271C22.568 12.6276 22.7123 12.6778 22.8888 12.6778C23.0476 12.6778 23.1785 12.638 23.2816 12.5581C23.3844 12.4783 23.4361 12.3676 23.4361 12.2258C23.4361 12.0428 23.3506 11.901 23.1801 11.8005C23.0092 11.7 22.7327 11.5878 22.3502 11.4637C21.9442 11.3278 21.6162 11.1963 21.366 11.0692C21.1159 10.9424 20.8983 10.7562 20.7129 10.5109C20.5275 10.2658 20.4348 9.94533 20.4348 9.54928C20.4348 9.14781 20.5348 8.80362 20.7348 8.51704C20.9348 8.23045 21.2116 8.01338 21.5646 7.86552C21.9177 7.71796 22.3178 7.64411 22.7651 7.64411C23.4891 7.64411 24.0671 7.81396 24.4996 8.15365C24.9321 8.49335 25.1632 8.97037 25.1928 9.58489H23.3124C23.3065 9.39584 23.2492 9.25402 23.1403 9.15942C23.0313 9.06513 22.8917 9.01775 22.721 9.01775C22.5914 9.01775 22.4856 9.05615 22.4033 9.13295C22.3208 9.20974 22.2798 9.31905 22.2798 9.46072C22.2798 9.57901 22.3253 9.68088 22.4165 9.7665C22.5077 9.85228 22.621 9.92598 22.7563 9.98806C22.8917 10.0502 23.0919 10.1285 23.3565 10.2229C23.7508 10.3589 24.0759 10.4933 24.3321 10.6263C24.5879 10.7591 24.8086 10.9452 24.9938 11.1844C25.1795 11.4238 25.272 11.7266 25.272 12.0928C25.272 12.4652 25.1795 12.799 24.9938 13.0942C24.8086 13.3898 24.5409 13.6231 24.1907 13.7944C23.8406 13.9658 23.4271 14.0514 22.9506 14.0514C22.2267 14.0514 21.6322 13.8784 21.1674 13.5329Z" fill="#FFBD35"/>
<path d="M30.7625 7.7416V9.12407H29.1029V13.9894H27.3729V9.12407H25.731V7.7416H30.7625Z" fill="#FFBD35"/>
<path d="M33.1369 10.4977H33.9931C34.2285 10.4977 34.405 10.4416 34.5229 10.3292C34.6404 10.2171 34.6994 10.0545 34.6994 9.84196C34.6994 9.64115 34.6388 9.48291 34.5184 9.36772C34.3976 9.25253 34.2226 9.19493 33.9931 9.19493H33.1369V10.4977ZM34.5582 13.9893L33.3223 11.6852H33.1369V13.9893H31.4069V7.74156H34.1344C34.6345 7.74156 35.0582 7.82888 35.4055 8.00306C35.7528 8.1774 36.0145 8.41661 36.1912 8.72069C36.3676 9.02509 36.456 9.36633 36.456 9.74442C36.456 10.1697 36.3399 10.5435 36.1073 10.8654C35.8747 11.1874 35.535 11.4164 35.0876 11.5524L36.4913 13.9893H34.5582Z" fill="#FFBD35"/>
<path d="M38.9365 7.7416V11.3662C38.9365 11.7029 39.0142 11.963 39.1703 12.146C39.3262 12.3292 39.5629 12.4209 39.8808 12.4209C40.1988 12.4209 40.4383 12.3276 40.6004 12.1415C40.7621 11.9556 40.8431 11.6972 40.8431 11.3662V7.7416H42.5733V11.3662C42.5733 11.9392 42.4525 12.4283 42.2112 12.8329C41.97 13.2376 41.642 13.5418 41.2271 13.7456C40.8121 13.9495 40.3516 14.0514 39.8456 14.0514C39.3395 14.0514 38.8879 13.9495 38.4906 13.7456C38.0934 13.5418 37.7814 13.2391 37.5548 12.8372C37.3283 12.4356 37.2151 11.9452 37.2151 11.3662V7.7416H38.9365Z" fill="#FFBD35"/>
<path d="M43.6985 9.20822C43.9545 8.72686 44.3178 8.3517 44.7885 8.08261C45.2593 7.81398 45.8006 7.67944 46.4129 7.67944C47.1895 7.67944 47.8428 7.88784 48.3724 8.30417C48.9021 8.72082 49.2433 9.28656 49.3964 10.0014H47.5338C47.4221 9.76514 47.2676 9.58492 47.0705 9.46075C46.8732 9.33673 46.6451 9.27464 46.3864 9.27464C45.9862 9.27464 45.6669 9.41786 45.4287 9.70445C45.1902 9.99119 45.071 10.3735 45.071 10.852C45.071 11.3367 45.1902 11.722 45.4287 12.0086C45.6669 12.2952 45.9862 12.4384 46.3864 12.4384C46.6451 12.4384 46.8732 12.3765 47.0705 12.2523C47.2676 12.1281 47.4221 11.9481 47.5338 11.7118H49.3964C49.2433 12.4267 48.9021 12.9922 48.3724 13.4089C47.8428 13.8254 47.1895 14.0336 46.4129 14.0336C45.8006 14.0336 45.2593 13.8994 44.7885 13.6305C44.3178 13.3617 43.9545 12.9865 43.6985 12.5048C43.4425 12.0235 43.3145 11.4724 43.3145 10.852C43.3145 10.2377 43.4425 9.68974 43.6985 9.20822" fill="#FFBD35"/>
<path d="M54.9045 7.7416V9.12407H53.2449V13.9894H51.5149V9.12407H49.8729V7.7416H54.9045Z" fill="#FFBD35"/>
<path d="M59.5786 12.0042C59.8344 11.7149 59.9624 11.3278 59.9624 10.8433C59.9624 10.3469 59.8344 9.95569 59.5786 9.66911C59.3226 9.38252 58.9739 9.23931 58.5325 9.23931C58.0852 9.23931 57.7351 9.38252 57.482 9.66911C57.2291 9.95569 57.1025 10.3469 57.1025 10.8433C57.1025 11.3338 57.2291 11.7221 57.482 12.0086C57.7351 12.2953 58.0852 12.4385 58.5325 12.4385C58.9739 12.4385 59.3226 12.2938 59.5786 12.0042V12.0042ZM56.9261 13.6394C56.4375 13.3645 56.0506 12.9835 55.7651 12.4961C55.4798 12.0086 55.3372 11.4578 55.3372 10.8433C55.3372 10.2288 55.4798 9.67793 55.7651 9.19053C56.0506 8.70314 56.4375 8.32365 56.9261 8.05177C57.4145 7.78005 57.9499 7.64411 58.5325 7.64411C59.1209 7.64411 59.658 7.78005 60.1435 8.05177C60.629 8.32365 61.013 8.70314 61.2955 9.19053C61.5779 9.67793 61.7191 10.2288 61.7191 10.8433C61.7191 11.4578 61.5779 12.0086 61.2955 12.4961C61.013 12.9835 60.6274 13.3645 60.139 13.6394C59.6506 13.914 59.115 14.0514 58.5325 14.0514C57.9499 14.0514 57.4145 13.914 56.9261 13.6394" fill="#FFBD35"/>
<path d="M64.2259 10.4977H65.0823C65.3175 10.4977 65.494 10.4416 65.6117 10.3292C65.7294 10.2171 65.7884 10.0545 65.7884 9.84196C65.7884 9.64115 65.7278 9.48291 65.6074 9.36772C65.4868 9.25253 65.3116 9.19493 65.0823 9.19493H64.2259V10.4977ZM65.6472 13.9893L64.4113 11.6852H64.2259V13.9893H62.4957V7.74156H65.2234C65.7235 7.74156 66.1472 7.82888 66.4945 8.00306C66.8418 8.1774 67.1036 8.41661 67.2802 8.72069C67.4566 9.02509 67.5448 9.36633 67.5448 9.74442C67.5448 10.1697 67.4287 10.5435 67.1963 10.8654C66.9637 11.1874 66.624 11.4164 66.1766 11.5524L67.5803 13.9893H65.6472Z" fill="#FFBD35"/>
<path d="M68.8954 13.5329C68.4304 13.1874 68.1805 12.6925 68.1451 12.0485H69.99C70.0078 12.2671 70.0724 12.4266 70.1842 12.5271C70.296 12.6276 70.4403 12.6778 70.6168 12.6778C70.7756 12.6778 70.9065 12.638 71.0096 12.5581C71.1124 12.4783 71.1641 12.3676 71.1641 12.2258C71.1641 12.0428 71.0786 11.901 70.9081 11.8005C70.7372 11.7 70.4607 11.5878 70.0782 11.4637C69.6722 11.3278 69.3442 11.1963 69.094 11.0692C68.8439 10.9424 68.6263 10.7562 68.4409 10.5109C68.2556 10.2658 68.1629 9.94533 68.1629 9.54928C68.1629 9.14781 68.2628 8.80362 68.4628 8.51704C68.6628 8.23045 68.9395 8.01338 69.2927 7.86552C69.6457 7.71796 70.0459 7.64411 70.4931 7.64411C71.217 7.64411 71.7951 7.81396 72.2276 8.15365C72.6601 8.49335 72.891 8.97037 72.9206 9.58489H71.0404C71.0345 9.39584 70.9772 9.25402 70.8683 9.15942C70.7594 9.06513 70.6197 9.01775 70.449 9.01775C70.3194 9.01775 70.2136 9.05615 70.1313 9.13295C70.0488 9.20974 70.0078 9.31905 70.0078 9.46072C70.0078 9.57901 70.0533 9.68088 70.1446 9.7665C70.2355 9.85228 70.3489 9.92598 70.4845 9.98806C70.6197 10.0502 70.8199 10.1285 71.0845 10.2229C71.4788 10.3589 71.8039 10.4933 72.0601 10.6263C72.3161 10.7591 72.5366 10.9452 72.722 11.1844C72.9075 11.4238 73 11.7266 73 12.0928C73 12.4652 72.9075 12.799 72.722 13.0942C72.5366 13.3898 72.2687 13.6231 71.9187 13.7944C71.5686 13.9658 71.1551 14.0514 70.6786 14.0514C69.9547 14.0514 69.3604 13.8784 68.8954 13.5329Z" fill="#FFBD35"/>
</svg>
