<svg width="73" height="62" viewBox="0 0 73 62" fill="none" xmlns="http://www.w3.org/2000/svg">
<path d="M14.3979 39.452L32.7499 39.833V15.5062L14.3979 27.0545V39.452ZM12.2389 39.4071V25.8549L34.909 11.5893V42.046L17.2357 41.6791L34.3987 52.3734L33.2602 54.2151L14.3979 42.4617V54.2676H12.2389V41.1166" fill="#1A5F7A"/>
<path d="M44.5541 54.0356H37.6079V51.868H42.395V14.1703L24.6536 3.77489V14.9522H22.4945V7.62939e-06L44.5541 12.9254V54.0356Z" fill="#1A5F7A"/>
<path d="M47.834 50.7051H48.6902C48.9256 50.7051 49.1022 50.649 49.22 50.5366C49.3375 50.4245 49.3966 50.262 49.3966 50.0494C49.3966 49.8486 49.3359 49.6903 49.2155 49.5751C49.0947 49.4599 48.9197 49.4023 48.6902 49.4023H47.834V50.7051ZM49.2553 54.1968L48.0194 51.8926H47.834V54.1968H46.104V47.949H48.8315C49.3316 47.949 49.7553 48.0363 50.1026 48.2105C50.4499 48.3848 50.7116 48.624 50.8883 48.9281C51.0647 49.2325 51.1531 49.5737 51.1531 49.9518C51.1531 50.3771 51.037 50.7509 50.8044 51.0728C50.5718 51.3948 50.2321 51.6238 49.7847 51.7598L51.1884 54.1968H49.2553Z" fill="#FFBD35"/>
<path d="M55.443 51.8478L54.7721 49.8272L54.1101 51.8478H55.443ZM55.8756 53.1772H53.6689L53.3333 54.1963H51.5149L53.7836 47.9484H55.7786L58.0382 54.1963H56.211L55.8756 53.1772Z" fill="#FFBD35"/>
<path d="M61.9928 52.2465C61.9928 52.0575 61.9354 51.9129 61.8207 51.8122C61.7059 51.7119 61.5426 51.6617 61.3307 51.6617H60.3332V52.796H61.3396C61.775 52.796 61.9928 52.613 61.9928 52.2465ZM60.3332 50.4299H61.2072C61.6425 50.4299 61.8604 50.2497 61.8604 49.8893C61.8604 49.517 61.6425 49.3309 61.2072 49.3309H60.3332V50.4299ZM63.4449 51.5332C63.6597 51.8138 63.7671 52.1344 63.7671 52.4949C63.7671 53.0264 63.5846 53.443 63.2197 53.7443C62.8549 54.0456 62.343 54.1963 61.6839 54.1963H58.6031V47.9485H61.5867C62.2222 47.9485 62.7211 48.0901 63.0829 48.3738C63.4449 48.6574 63.6258 49.0563 63.6258 49.5703C63.6258 49.9366 63.5302 50.2424 63.339 50.4875C63.1476 50.7328 62.8933 50.8995 62.5754 50.9881C62.9403 51.0709 63.2299 51.2527 63.4449 51.5332Z" fill="#FFBD35"/>
<path d="M70.0959 47.949V54.1968H68.3658V51.6887H66.2563V54.1968H64.5261V47.949H66.2563V50.2974H68.3658V47.949H70.0959Z" fill="#FFBD35"/>
<path d="M72.8147 54.1963H71.0845V47.9485H72.8147V54.1963Z" fill="#FFBD35"/>
<path d="M0.384004 57.157C0.640007 56.6756 1.00335 56.3005 1.47402 56.0314C1.94485 55.7628 2.48616 55.6282 3.09841 55.6282C3.87505 55.6282 4.52832 55.8366 5.05791 56.253C5.58765 56.6696 5.92878 57.2354 6.08192 57.9502H4.21927C4.10761 57.7139 3.95308 57.5337 3.75599 57.4095C3.55875 57.2855 3.33066 57.2234 3.07188 57.2234C2.67168 57.2234 2.35245 57.3667 2.11418 57.6532C1.87576 57.94 1.75655 58.3223 1.75655 58.8008C1.75655 59.2855 1.87576 59.6708 2.11418 59.9574C2.35245 60.244 2.67168 60.3872 3.07188 60.3872C3.33066 60.3872 3.55875 60.3253 3.75599 60.2011C3.95308 60.0769 4.10761 59.8969 4.21927 59.6606H6.08192C5.92878 60.3754 5.58765 60.941 5.05791 61.3577C4.52832 61.7742 3.87505 61.9824 3.09841 61.9824C2.48616 61.9824 1.94485 61.8482 1.47402 61.5792C1.00335 61.3105 0.640007 60.9353 0.384004 60.4536C0.128001 59.9723 0 59.4212 0 58.8008C0 58.1865 0.128001 57.6385 0.384004 57.157Z" fill="#FFBD35"/>
<path d="M10.9322 59.9529C11.1882 59.6635 11.3162 59.2764 11.3162 58.792C11.3162 58.2956 11.1882 57.9043 10.9322 57.6177C10.6764 57.3312 10.3277 57.1879 9.88631 57.1879C9.43892 57.1879 9.08885 57.3312 8.83578 57.6177C8.58286 57.9043 8.45625 58.2956 8.45625 58.792C8.45625 59.2825 8.58286 59.6708 8.83578 59.9572C9.08885 60.2439 9.43892 60.3872 9.88631 60.3872C10.3277 60.3872 10.6764 60.2424 10.9322 59.9529ZM8.27982 61.588C7.79126 61.3132 7.40433 60.9322 7.11887 60.4448C6.83342 59.9572 6.69092 59.4065 6.69092 58.792C6.69092 58.1774 6.83342 57.6266 7.11887 57.1392C7.40433 56.6518 7.79126 56.2723 8.27982 56.0004C8.76808 55.7287 9.30352 55.5928 9.88631 55.5928C10.4746 55.5928 11.0118 55.7287 11.4973 56.0004C11.9827 56.2723 12.3667 56.6518 12.6491 57.1392C12.9316 57.6266 13.0729 58.1774 13.0729 58.792C13.0729 59.4065 12.9316 59.9572 12.6491 60.4448C12.3667 60.9322 11.9814 61.3132 11.4928 61.588C11.0042 61.8627 10.4689 62 9.88631 62C9.30352 62 8.76808 61.8627 8.27982 61.588Z" fill="#FFBD35"/>
<path d="M19.6138 61.938H17.8836L15.5798 58.4463V61.938H13.8497V55.6902H15.5798L17.8836 59.2262V55.6902H19.6138V61.938Z" fill="#FFBD35"/>
<path d="M21.1674 61.4815C20.7024 61.1361 20.4524 60.6411 20.4171 59.9971H22.262C22.2798 60.2158 22.3444 60.3752 22.4562 60.4757C22.568 60.5762 22.7123 60.6264 22.8888 60.6264C23.0476 60.6264 23.1785 60.5866 23.2816 60.5067C23.3844 60.4269 23.4361 60.3162 23.4361 60.1744C23.4361 59.9914 23.3506 59.8496 23.1801 59.7491C23.0092 59.6486 22.7327 59.5364 22.3502 59.4123C21.9442 59.2764 21.6162 59.145 21.366 59.0178C21.1159 58.891 20.8983 58.7048 20.7129 58.4595C20.5275 58.2144 20.4348 57.8939 20.4348 57.4979C20.4348 57.0964 20.5348 56.7522 20.7348 56.4656C20.9348 56.1791 21.2116 55.962 21.5646 55.8141C21.9177 55.6666 22.3178 55.5927 22.7651 55.5927C23.4891 55.5927 24.0671 55.7626 24.4996 56.1023C24.9321 56.442 25.1632 56.919 25.1928 57.5335H23.3124C23.3065 57.3445 23.2492 57.2026 23.1403 57.108C23.0313 57.0137 22.8917 56.9664 22.721 56.9664C22.5914 56.9664 22.4856 57.0048 22.4033 57.0816C22.3208 57.1583 22.2798 57.2677 22.2798 57.4093C22.2798 57.5276 22.3253 57.6295 22.4165 57.7151C22.5077 57.8009 22.621 57.8746 22.7563 57.9367C22.8917 57.9988 23.0919 58.0771 23.3565 58.1715C23.7508 58.3075 24.0759 58.4419 24.3321 58.5749C24.5879 58.7077 24.8086 58.8938 24.9938 59.133C25.1795 59.3724 25.272 59.6752 25.272 60.0414C25.272 60.4138 25.1795 60.7476 24.9938 61.0428C24.8086 61.3384 24.5409 61.5717 24.1907 61.743C23.8406 61.9144 23.4271 62 22.9506 62C22.2267 62 21.6322 61.8271 21.1674 61.4815Z" fill="#FFBD35"/>
<path d="M30.7625 55.6902V57.0726H29.1029V61.938H27.3729V57.0726H25.731V55.6902H30.7625Z" fill="#FFBD35"/>
<path d="M33.1369 58.4463H33.9931C34.2285 58.4463 34.405 58.3903 34.5229 58.2778C34.6404 58.1657 34.6994 58.0032 34.6994 57.7906C34.6994 57.5898 34.6388 57.4316 34.5184 57.3164C34.3976 57.2012 34.2226 57.1436 33.9931 57.1436H33.1369V58.4463ZM34.5582 61.938L33.3223 59.6338H33.1369V61.938H31.4069V55.6902H34.1344C34.6345 55.6902 35.0582 55.7775 35.4055 55.9517C35.7528 56.126 36.0145 56.3652 36.1912 56.6693C36.3676 56.9737 36.456 57.315 36.456 57.6931C36.456 58.1184 36.3399 58.4921 36.1073 58.814C35.8747 59.1361 35.535 59.365 35.0876 59.501L36.4913 61.938H34.5582Z" fill="#FFBD35"/>
<path d="M38.9365 55.6902V59.3148C38.9365 59.6515 39.0142 59.9117 39.1703 60.0947C39.3262 60.2778 39.5629 60.3695 39.8808 60.3695C40.1988 60.3695 40.4383 60.2763 40.6004 60.0902C40.7621 59.9042 40.8431 59.6458 40.8431 59.3148V55.6902H42.5733V59.3148C42.5733 59.8878 42.4525 60.3769 42.2112 60.7815C41.97 61.1862 41.642 61.4905 41.2271 61.6942C40.8121 61.8981 40.3516 62 39.8456 62C39.3395 62 38.8879 61.8981 38.4906 61.6942C38.0934 61.4905 37.7814 61.1878 37.5548 60.7858C37.3283 60.3842 37.2151 59.8939 37.2151 59.3148V55.6902H38.9365Z" fill="#FFBD35"/>
<path d="M43.6985 57.157C43.9545 56.6756 44.3178 56.3005 44.7885 56.0314C45.2593 55.7628 45.8006 55.6282 46.4129 55.6282C47.1895 55.6282 47.8428 55.8366 48.3724 56.253C48.9021 56.6696 49.2433 57.2354 49.3964 57.9502H47.5338C47.4221 57.7139 47.2676 57.5337 47.0705 57.4095C46.8732 57.2855 46.6451 57.2234 46.3864 57.2234C45.9862 57.2234 45.6669 57.3667 45.4287 57.6532C45.1902 57.94 45.071 58.3223 45.071 58.8008C45.071 59.2855 45.1902 59.6708 45.4287 59.9574C45.6669 60.244 45.9862 60.3872 46.3864 60.3872C46.6451 60.3872 46.8732 60.3253 47.0705 60.2011C47.2676 60.0769 47.4221 59.8969 47.5338 59.6606H49.3964C49.2433 60.3754 48.9021 60.941 48.3724 61.3577C47.8428 61.7742 47.1895 61.9824 46.4129 61.9824C45.8006 61.9824 45.2593 61.8482 44.7885 61.5792C44.3178 61.3105 43.9545 60.9353 43.6985 60.4536C43.4425 59.9723 43.3145 59.4212 43.3145 58.8008C43.3145 58.1865 43.4425 57.6385 43.6985 57.157Z" fill="#FFBD35"/>
<path d="M54.9045 55.6902V57.0726H53.2449V61.938H51.5149V57.0726H49.8729V55.6902H54.9045Z" fill="#FFBD35"/>
<path d="M59.5786 59.9529C59.8344 59.6635 59.9624 59.2764 59.9624 58.792C59.9624 58.2956 59.8344 57.9043 59.5786 57.6177C59.3226 57.3312 58.9739 57.1879 58.5325 57.1879C58.0852 57.1879 57.7351 57.3312 57.482 57.6177C57.2291 57.9043 57.1025 58.2956 57.1025 58.792C57.1025 59.2825 57.2291 59.6708 57.482 59.9572C57.7351 60.2439 58.0852 60.3872 58.5325 60.3872C58.9739 60.3872 59.3226 60.2424 59.5786 59.9529ZM56.9261 61.588C56.4375 61.3132 56.0506 60.9322 55.7651 60.4448C55.4798 59.9572 55.3372 59.4065 55.3372 58.792C55.3372 58.1774 55.4798 57.6266 55.7651 57.1392C56.0506 56.6518 56.4375 56.2723 56.9261 56.0004C57.4145 55.7287 57.9499 55.5928 58.5325 55.5928C59.1209 55.5928 59.658 55.7287 60.1435 56.0004C60.629 56.2723 61.013 56.6518 61.2955 57.1392C61.5779 57.6266 61.7191 58.1774 61.7191 58.792C61.7191 59.4065 61.5779 59.9572 61.2955 60.4448C61.013 60.9322 60.6274 61.3132 60.139 61.588C59.6506 61.8627 59.115 62 58.5325 62C57.9499 62 57.4145 61.8627 56.9261 61.588Z" fill="#FFBD35"/>
<path d="M64.2259 58.4463H65.0823C65.3175 58.4463 65.494 58.3903 65.6117 58.2778C65.7294 58.1657 65.7884 58.0032 65.7884 57.7906C65.7884 57.5898 65.7278 57.4316 65.6074 57.3164C65.4868 57.2012 65.3116 57.1436 65.0823 57.1436H64.2259V58.4463ZM65.6472 61.938L64.4113 59.6338H64.2259V61.938H62.4957V55.6902H65.2234C65.7235 55.6902 66.1472 55.7775 66.4945 55.9517C66.8418 56.126 67.1036 56.3652 67.2802 56.6693C67.4566 56.9737 67.5448 57.315 67.5448 57.6931C67.5448 58.1184 67.4287 58.4921 67.1963 58.814C66.9637 59.1361 66.624 59.365 66.1766 59.501L67.5803 61.938H65.6472Z" fill="#FFBD35"/>
<path d="M68.8954 61.4815C68.4304 61.1361 68.1805 60.6411 68.1451 59.9971H69.99C70.0078 60.2158 70.0724 60.3752 70.1842 60.4757C70.296 60.5762 70.4403 60.6264 70.6168 60.6264C70.7756 60.6264 70.9065 60.5866 71.0096 60.5067C71.1124 60.4269 71.1641 60.3162 71.1641 60.1744C71.1641 59.9914 71.0786 59.8496 70.9081 59.7491C70.7372 59.6486 70.4607 59.5364 70.0782 59.4123C69.6722 59.2764 69.3442 59.145 69.094 59.0178C68.8439 58.891 68.6263 58.7048 68.4409 58.4595C68.2556 58.2144 68.1629 57.8939 68.1629 57.4979C68.1629 57.0964 68.2628 56.7522 68.4628 56.4656C68.6628 56.1791 68.9395 55.962 69.2927 55.8141C69.6457 55.6666 70.0459 55.5927 70.4931 55.5927C71.217 55.5927 71.7951 55.7626 72.2276 56.1023C72.6601 56.442 72.891 56.919 72.9206 57.5335H71.0404C71.0345 57.3445 70.9772 57.2026 70.8683 57.108C70.7594 57.0137 70.6197 56.9664 70.449 56.9664C70.3194 56.9664 70.2136 57.0048 70.1313 57.0816C70.0488 57.1583 70.0078 57.2677 70.0078 57.4093C70.0078 57.5276 70.0533 57.6295 70.1446 57.7151C70.2355 57.8009 70.3489 57.8746 70.4845 57.9367C70.6197 57.9988 70.8199 58.0771 71.0845 58.1715C71.4788 58.3075 71.8039 58.4419 72.0601 58.5749C72.3161 58.7077 72.5366 58.8938 72.722 59.133C72.9075 59.3724 73 59.6752 73 60.0414C73 60.4138 72.9075 60.7476 72.722 61.0428C72.5366 61.3384 72.2687 61.5717 71.9187 61.743C71.5686 61.9144 71.1551 62 70.6786 62C69.9547 62 69.3604 61.8271 68.8954 61.4815Z" fill="#FFBD35"/>
</svg>
